<svg width="72" height="24" viewBox="0 0 72 24" fill="none" xmlns="http://www.w3.org/2000/svg">
<g clip-path="url(#clip0_2931_410)">
<path d="M5.99994 15.0001L-6.05583e-05 15.0001L-6.00338e-05 9.00006L5.99994 9.00006L5.99994 15.0001Z" fill="#FF00AE"/>
<path d="M14.0001 15.0001L8.00012 15.0001L8.00012 9.00006L14.0001 9.00006L14.0001 15.0001Z" fill="#0062F9"/>
<path d="M68.3464 10.35C68.3744 10.21 68.3884 10.084 68.3884 9.97203C68.3884 9.60803 68.2577 9.31403 67.9964 9.09003C67.7351 8.8567 67.3337 8.74003 66.7924 8.74003C66.5777 8.74003 66.3677 8.76336 66.1624 8.81003C65.9571 8.8567 65.7751 8.93136 65.6164 9.03403C65.4577 9.12736 65.3317 9.2487 65.2384 9.39803C65.1451 9.54736 65.0984 9.72003 65.0984 9.91603C65.0984 10.2427 65.2337 10.4994 65.5044 10.686C65.7844 10.8727 66.2324 11.0174 66.8484 11.12C67.7164 11.26 68.3977 11.54 68.8924 11.96C69.3964 12.3707 69.6484 12.9727 69.6484 13.766C69.6484 14.298 69.5504 14.774 69.3544 15.194C69.1677 15.614 68.8971 15.9734 68.5424 16.272C68.1971 16.5707 67.7771 16.7994 67.2824 16.958C66.7877 17.1167 66.2324 17.196 65.6164 17.196C65.0284 17.196 64.5151 17.1214 64.0764 16.972C63.6377 16.8134 63.2737 16.6034 62.9844 16.342C62.7044 16.0714 62.4944 15.7587 62.3544 15.404C62.2144 15.0494 62.1444 14.6667 62.1444 14.256C62.1444 14.1347 62.1491 14.0134 62.1584 13.892C62.1677 13.7707 62.1864 13.6447 62.2144 13.514L62.2844 13.192H64.1324L64.0764 13.43C64.0391 13.6074 64.0204 13.808 64.0204 14.032C64.0204 14.48 64.1604 14.83 64.4404 15.082C64.7297 15.334 65.1591 15.46 65.7284 15.46C66.3444 15.46 66.8251 15.334 67.1704 15.082C67.5157 14.8207 67.6884 14.466 67.6884 14.018C67.6884 13.6634 67.5391 13.388 67.2404 13.192C66.9511 12.996 66.4611 12.8467 65.7704 12.744C65.4437 12.6974 65.1217 12.6134 64.8044 12.492C64.4964 12.3707 64.2211 12.2027 63.9784 11.988C63.7357 11.7734 63.5397 11.512 63.3904 11.204C63.2411 10.8867 63.1664 10.5134 63.1664 10.084C63.1664 9.64536 63.2457 9.23936 63.4044 8.86603C63.5724 8.48336 63.8151 8.1567 64.1324 7.88603C64.4591 7.60603 64.8557 7.39136 65.3224 7.24203C65.7984 7.08336 66.3444 7.00403 66.9604 7.00403C67.4831 7.00403 67.9497 7.06936 68.3604 7.20003C68.7711 7.3307 69.1164 7.5127 69.3964 7.74603C69.6857 7.97936 69.9051 8.25936 70.0544 8.58603C70.2037 8.90336 70.2784 9.2487 70.2784 9.62203C70.2784 9.7247 70.2737 9.82736 70.2644 9.93003C70.2551 10.0327 70.2364 10.1494 70.2084 10.28L70.1524 10.532H68.3044L68.3464 10.35Z" fill="white"/>
<path d="M26.398 10.35C26.426 10.21 26.44 10.084 26.44 9.97203C26.44 9.60803 26.3094 9.31403 26.048 9.09003C25.7867 8.8567 25.3854 8.74003 24.844 8.74003C24.6294 8.74003 24.4194 8.76336 24.214 8.81003C24.0087 8.8567 23.8267 8.93136 23.668 9.03403C23.5094 9.12736 23.3834 9.2487 23.29 9.39803C23.1967 9.54736 23.15 9.72003 23.15 9.91603C23.15 10.2427 23.2854 10.4994 23.556 10.686C23.836 10.8727 24.284 11.0174 24.9 11.12C25.768 11.26 26.4494 11.54 26.944 11.96C27.448 12.3707 27.7 12.9727 27.7 13.766C27.7 14.298 27.602 14.774 27.406 15.194C27.2194 15.614 26.9487 15.9734 26.594 16.272C26.2487 16.5707 25.8287 16.7994 25.334 16.958C24.8394 17.1167 24.284 17.196 23.668 17.196C23.08 17.196 22.5667 17.1214 22.128 16.972C21.6894 16.8134 21.3254 16.6034 21.036 16.342C20.756 16.0714 20.546 15.7587 20.406 15.404C20.266 15.0494 20.196 14.6667 20.196 14.256C20.196 14.1347 20.2007 14.0134 20.21 13.892C20.2194 13.7707 20.238 13.6447 20.266 13.514L20.336 13.192H22.184L22.128 13.43C22.0907 13.6074 22.072 13.808 22.072 14.032C22.072 14.48 22.212 14.83 22.492 15.082C22.7814 15.334 23.2107 15.46 23.78 15.46C24.396 15.46 24.8767 15.334 25.222 15.082C25.5674 14.8207 25.74 14.466 25.74 14.018C25.74 13.6634 25.5907 13.388 25.292 13.192C25.0027 12.996 24.5127 12.8467 23.822 12.744C23.4954 12.6974 23.1734 12.6134 22.856 12.492C22.548 12.3707 22.2727 12.2027 22.03 11.988C21.7874 11.7734 21.5914 11.512 21.442 11.204C21.2927 10.8867 21.218 10.5134 21.218 10.084C21.218 9.64536 21.2974 9.23936 21.456 8.86603C21.624 8.48336 21.8667 8.1567 22.184 7.88603C22.5107 7.60603 22.9074 7.39136 23.374 7.24203C23.85 7.08336 24.396 7.00403 25.012 7.00403C25.5347 7.00403 26.0014 7.06936 26.412 7.20003C26.8227 7.3307 27.168 7.5127 27.448 7.74603C27.7374 7.97936 27.9567 8.25936 28.106 8.58603C28.2554 8.90336 28.33 9.2487 28.33 9.62203C28.33 9.7247 28.3254 9.82736 28.316 9.93003C28.3067 10.0327 28.288 10.1494 28.26 10.28L28.204 10.532H26.356L26.398 10.35Z" fill="white"/>
<path d="M32.276 15.516C32.6213 15.516 32.9153 15.46 33.158 15.348C33.41 15.236 33.62 15.0914 33.788 14.914C33.956 14.7274 34.0867 14.5174 34.18 14.284C34.2827 14.0414 34.362 13.7987 34.418 13.556L34.474 13.304H36.322L36.266 13.556C36.1353 14.1627 35.958 14.6947 35.734 15.152C35.51 15.6 35.2253 15.978 34.88 16.286C34.5347 16.5847 34.124 16.8134 33.648 16.972C33.172 17.1214 32.612 17.196 31.968 17.196C31.5293 17.196 31.128 17.1307 30.764 17C30.4 16.8694 30.0873 16.678 29.826 16.426C29.5647 16.174 29.3593 15.8707 29.21 15.516C29.07 15.152 29 14.7367 29 14.27C29 14.102 29.0093 13.934 29.028 13.766C29.0467 13.598 29.0793 13.4067 29.126 13.192L29.588 11.008C29.8773 9.6547 30.3907 8.65136 31.128 7.99803C31.8653 7.33536 32.8267 7.00403 34.012 7.00403C34.4787 7.00403 34.894 7.0787 35.258 7.22803C35.6313 7.37736 35.944 7.5827 36.196 7.84403C36.4573 8.09603 36.6533 8.3947 36.784 8.74003C36.924 9.08536 36.994 9.45403 36.994 9.84603C36.994 9.9767 36.9847 10.1074 36.966 10.238C36.9473 10.3687 36.924 10.504 36.896 10.644L36.84 10.896H34.992L35.048 10.644C35.104 10.42 35.132 10.2054 35.132 10C35.132 9.63603 35.0247 9.32803 34.81 9.07603C34.6047 8.8147 34.2407 8.68403 33.718 8.68403C33.41 8.68403 33.13 8.74469 32.878 8.86603C32.626 8.97803 32.4067 9.1367 32.22 9.34203C32.0333 9.53803 31.8747 9.77136 31.744 10.042C31.6227 10.3034 31.5293 10.5787 31.464 10.868L30.946 13.332C30.918 13.472 30.8947 13.612 30.876 13.752C30.8573 13.8827 30.848 14.0087 30.848 14.13C30.848 14.55 30.9553 14.886 31.17 15.138C31.394 15.39 31.7627 15.516 32.276 15.516Z" fill="white"/>
<path d="M42.5766 14.9H39.3426L38.4466 17H36.4726L40.7846 7.20003H44.2006L44.4386 17H42.6046L42.5766 14.9ZM40.0846 13.136H42.5486L42.4786 8.12403H42.2266L40.0846 13.136Z" fill="white"/>
<path d="M48.5749 13.304L47.7909 17H45.9569L48.0289 7.20003H51.5289C51.9396 7.20003 52.3082 7.26536 52.6349 7.39603C52.9709 7.5267 53.2556 7.7087 53.4889 7.94203C53.7222 8.17536 53.8996 8.4507 54.0209 8.76803C54.1516 9.08536 54.2169 9.4307 54.2169 9.80403C54.2169 10.3267 54.1282 10.8027 53.9509 11.232C53.7736 11.6614 53.5216 12.03 53.1949 12.338C52.8682 12.646 52.4762 12.884 52.0189 13.052C51.5616 13.22 51.0529 13.304 50.4929 13.304H48.5749ZM48.9529 11.54H50.6609C51.1369 11.54 51.5336 11.4 51.8509 11.12C52.1682 10.84 52.3269 10.476 52.3269 10.028C52.3269 9.6827 52.2149 9.42136 51.9909 9.24403C51.7762 9.05736 51.4916 8.96403 51.1369 8.96403H49.4989L48.9529 11.54Z" fill="white"/>
<path d="M54 16.832L56.044 7.20003H61.854V8.96403H57.514L57.038 11.204H60.832V12.968H56.66L56.184 15.236H60.314V17H54V16.832Z" fill="white"/>
</g>
<defs>
<clipPath id="clip0_2931_410">
<rect width="72" height="24" fill="white"/>
</clipPath>
</defs>
</svg>
